<?xml version="1.0" encoding="UTF-8"?>
<svg width="24px" height="380px" viewBox="0 0 24 380" version="1.1" xmlns="http://www.w3.org/2000/svg" xmlns:xlink="http://www.w3.org/1999/xlink">
    <title>crow-specStatusHist-repl</title>
    <g id="crow-specStatusHist-repl" stroke="none" stroke-width="1" fill="none" fill-rule="evenodd">
        <rect id="Rectangle-Copy" fill="#FF5500" transform="translate(12.000000, 190.000000) rotate(-90.000000) translate(-12.000000, -190.000000) " x="-178" y="178" width="380" height="24"></rect>
        <path d="M-28.8,77.37 L-23.6,63.25 L-25.7,63.25 L-29.24,73.23 C-29.5,73.99 -29.78,75.17 -29.78,75.17 L-29.82,75.17 C-29.82,75.17 -30.1,73.99 -30.36,73.23 L-33.86,63.25 L-36,63.25 L-30.78,77.37 L-28.8,77.37 Z M-17.9,77.61 C-15.48,77.61 -13.98,76.17 -13.98,76.17 L-14.78,74.75 C-14.78,74.75 -16.04,75.93 -17.78,75.93 C-19.58,75.93 -21.16,74.81 -21.26,72.59 L-13.88,72.59 C-13.88,72.59 -13.82,72.01 -13.82,71.75 C-13.82,69.13 -15.34,67.01 -18.2,67.01 C-21.08,67.01 -23.26,69.09 -23.26,72.31 C-23.26,75.31 -21.08,77.61 -17.9,77.61 Z M-15.8,71.13 L-21.2,71.13 C-20.92,69.47 -19.72,68.55 -18.24,68.55 C-16.94,68.55 -15.86,69.39 -15.8,71.13 Z M-9.52,77.37 L-9.52,73.23 C-9.52,72.61 -9.46,71.99 -9.28,71.41 C-8.82,69.91 -7.68,69.03 -6.44,69.03 C-6.14,69.03 -5.88,69.09 -5.88,69.09 L-5.88,67.17 C-5.88,67.17 -6.12,67.13 -6.38,67.13 C-7.94,67.13 -9.12,68.29 -9.58,69.77 L-9.62,69.77 C-9.62,69.77 -9.58,69.43 -9.58,69.01 L-9.58,67.25 L-11.46,67.25 L-11.46,77.37 L-9.52,77.37 Z M0.68,77.37 L4.42,67.25 L2.38,67.25 L-0.08,74.09 C-0.28,74.65 -0.42,75.47 -0.44,75.47 L-0.48,75.47 C-0.5,75.47 -0.62,74.65 -0.82,74.09 L-3.28,67.25 L-5.34,67.25 L-1.56,77.37 L0.68,77.37 Z M8.7,77.61 C11.12,77.61 11.94,75.61 11.94,75.61 L11.98,75.61 L11.97584,75.64904 C11.9656,75.7508 11.94,76.042 11.94,76.41 L11.94,77.37 L13.74,77.37 L13.74,70.97 C13.74,68.41 12.3,67.01 9.74,67.01 C7.42,67.01 5.96,68.21 5.96,68.21 L6.76,69.63 C6.76,69.63 8.02,68.65 9.58,68.65 C10.86,68.65 11.8,69.21 11.8,70.87 L11.8,71.05 L11.36,71.05 C9.66,71.05 5.26,71.19 5.26,74.53 C5.26,76.55 6.96,77.61 8.7,77.61 Z M9.12,76.05 C7.86,76.05 7.22,75.25 7.22,74.43 C7.22,72.61 9.86,72.51 11.32,72.51 L11.82,72.51 L11.82,72.83 C11.82,74.33 10.76,76.05 9.12,76.05 Z M18.58,77.37 L18.58,72.63 C18.58,72.13 18.62,71.67 18.74,71.27 C19.16,69.81 20.4,68.79 21.94,68.79 C23.56,68.79 23.86,69.91 23.86,71.33 L23.86,77.37 L25.8,77.37 L25.8,70.89 C25.8,68.31 24.7,67.01 22.32,67.01 C20.12,67.01 18.92,68.45 18.52,69.33 L18.48,69.33 C18.48,69.33 18.52,68.99 18.52,68.59 L18.52,67.25 L16.64,67.25 L16.64,77.37 L18.58,77.37 Z M32.42,81.57 C34.98,81.57 37.52,80.29 37.52,76.95 L37.52,67.25 L35.66,67.25 L35.66,68.19 C35.66,68.37 35.68,68.51 35.68,68.51 L35.64,68.51 C35.64,68.51 34.9,67.01 32.46,67.01 C29.66,67.01 28.04,69.17 28.04,72.07 C28.04,74.99 29.74,77.25 32.56,77.25 C34.02,77.25 34.96,76.67 35.56,75.67 L35.6,75.67 C35.6,75.67 35.5841975,75.9228395 35.5806859,76.2037723 L35.58,77.05 C35.58,79.11 34.14,79.89 32.38,79.89 C30.86,79.89 29.6,79.21 29.6,79.21 L28.96,80.73 C29.94,81.23 31.2,81.57 32.42,81.57 Z M32.94,75.57 C31.12,75.57 30,74.13 30,72.03 C30,69.97 31,68.69 32.76,68.69 C34.34,68.69 35.62,69.45 35.62,72.09 C35.62,74.73 34.34,75.57 32.94,75.57 Z M45.22,77.61 C47.64,77.61 49.14,76.17 49.14,76.17 L48.34,74.75 C48.34,74.75 47.08,75.93 45.34,75.93 C43.54,75.93 41.96,74.81 41.86,72.59 L49.24,72.59 C49.24,72.59 49.3,72.01 49.3,71.75 C49.3,69.13 47.78,67.01 44.92,67.01 C42.04,67.01 39.86,69.09 39.86,72.31 C39.86,75.31 42.04,77.61 45.22,77.61 Z M47.32,71.13 L41.92,71.13 C42.2,69.47 43.4,68.55 44.88,68.55 C46.18,68.55 47.26,69.39 47.32,71.13 Z M53.6,77.37 L53.6,72.63 C53.6,72.13 53.64,71.67 53.76,71.27 C54.18,69.81 55.42,68.79 56.96,68.79 C58.58,68.79 58.88,69.91 58.88,71.33 L58.88,77.37 L60.82,77.37 L60.82,70.89 C60.82,68.31 59.72,67.01 57.34,67.01 C55.14,67.01 53.94,68.45 53.54,69.33 L53.5,69.33 C53.5,69.33 53.54,68.99 53.54,68.59 L53.54,67.25 L51.66,67.25 L51.66,77.37 L53.6,77.37 Z" id="Vervangen" fill="#FFFFFF" fill-rule="nonzero" transform="translate(12.410000, 72.410000) rotate(-90.000000) translate(-12.410000, -72.410000) "></path>
    </g>
</svg>