<?xml version="1.0" encoding="UTF-8"?>
<svg width="121px" height="73px" viewBox="0 0 121 73" version="1.1" xmlns="http://www.w3.org/2000/svg" xmlns:xlink="http://www.w3.org/1999/xlink">
    <title>praktisch-toepasbaar</title>
    <g id="praktisch-toepasbaar" stroke="none" stroke-width="1" fill="none" fill-rule="evenodd">
        <rect fill="#FFFFFF" x="0" y="0" width="121" height="73"></rect>
        <path d="M0,73 L0,1.70977815e-13 L20.1663173,-0.0156667644 L23.0311591,-0.00405340805 C21.6697499,4.02821161 20.8709388,8.3341058 20.58,12.64 C25.1855075,6.44638643 31.7993387,1.70063407 40.6687361,0.0922346969 L41.2036086,-0.000490925648 L121,1.70089637e-13 L121,73 L0,73 Z M65.7,47.86 C64.7273684,47.86 64.2108033,48.3486427 64.0062837,48.605823 L63.9373174,48.6997726 L63.9373174,48.6997726 L63.9,48.76 L63.9,47.98 L62.64,47.98 L62.64,55.96 L64.08,55.96 L64.08,53.5 C64.08,53.3628571 64.0408163,53.2453061 64.0072303,53.1697376 L63.96,53.08 L64.08,53.08 L64.1208874,53.1393527 L64.1208874,53.1393527 L64.1966294,53.2302137 C64.3893426,53.4412457 64.8352941,53.8 65.64,53.8 C67.14,53.8 68.22,52.66 68.22,50.86 C68.22,49.06 67.26,47.86 65.7,47.86 Z M95.64,47.86 C94.76,47.86 94.0933333,48.1533333 93.7466667,48.3488889 L93.6004938,48.4367078 L93.6004938,48.4367078 L93.48,48.52 L94.02,49.54 L94.10112,49.48384 L94.10112,49.48384 L94.2355556,49.4 C94.5066667,49.24 95,49 95.52,49 C96.136,49 96.5952,49.2613333 96.6536889,49.8815644 L96.66,50.02 L96.66,50.08 L96.1150148,50.0849562 L96.1150148,50.0849562 L95.8760025,50.0963896 L95.8760025,50.0963896 L95.6143674,50.1173619 L95.6143674,50.1173619 L95.3365653,50.1504745 C94.2962077,50.2973241 93.06,50.7414667 93.06,52.06 C93.06,53.2 94.02,53.8 94.98,53.8 C95.89,53.8 96.3931481,53.2992593 96.6024588,53.02107 L96.6786111,52.9111111 L96.6786111,52.9111111 L96.72,52.84 L96.72,53.68 L97.98,53.68 L97.98,50.14 C97.98,48.7 97.2,47.86 95.64,47.86 Z M77.46,47.86 C76.14,47.86 75.24,48.46 75.24,49.54 C75.24,50.34 75.7733333,50.7607407 76.3659259,51.0603292 L76.6649657,51.2012224 L76.6649657,51.2012224 L77.24,51.4511111 C77.64,51.6333333 77.94,51.82 77.94,52.12 C77.94,52.42 77.64,52.6 77.22,52.6 C76.62,52.6 76.1533333,52.3333333 75.9088889,52.1555556 L75.7896,52.0624 L75.7896,52.0624 L75.72,52 L75.12,52.96 L75.1738504,53.0162123 C75.1858172,53.0279691 75.1997784,53.041318 75.2157341,53.056014 L75.3354017,53.1583963 C75.6465374,53.406759 76.2947368,53.8 77.28,53.8 C78.6,53.8 79.38,53.08 79.38,52.12 C79.38,51.1866667 78.6540741,50.7534156 77.9550343,50.4354763 L77.38,50.1822222 C76.98,50 76.68,49.82 76.68,49.54 C76.68,49.24 77.04,49.06 77.34,49.06 C77.852,49.06 78.2274667,49.1965333 78.4664,49.3239644 L78.62,49.4155556 C78.6413333,49.4297778 78.6605333,49.4432889 78.6776,49.4558044 L78.78,49.54 L79.32,48.46 L79.2119438,48.375978 C78.9795156,48.2108651 78.3776471,47.86 77.46,47.86 Z M34.56,47.86 C32.7,47.86 31.5,49.24 31.5,50.86 C31.5,52.54 32.7,53.8 34.56,53.8 C35.61,53.8 36.3366,53.359 36.67806,53.0944 L36.80064,52.9936 L36.80064,52.9936 L36.9,52.9 L36.42,51.88 L36.342085,51.9464453 L36.342085,51.9464453 L36.211626,52.0469922 C35.9207812,52.2596875 35.35875,52.6 34.74,52.6 C33.6,52.6 32.94,51.76 32.94,50.86 C32.94,49.84 33.6,49.06 34.68,49.06 C35.28,49.06 35.7466667,49.3266667 35.9911111,49.5044444 L36.1104,49.5976 L36.1104,49.5976 L36.18,49.66 L36.78,48.7 L36.6837061,48.603986 L36.6837061,48.603986 L36.5627088,48.5016037 C36.2474792,48.253241 35.5863158,47.86 34.56,47.86 Z M58.86,47.86 C57.18,47.86 55.98,49.06 55.98,50.86 C55.98,52.42 57.12,53.8 58.98,53.8 C59.9652632,53.8 60.6696399,53.406759 61.016256,53.1583963 L61.1505496,53.056014 L61.1505496,53.056014 L61.26,52.96 L60.72,52 L60.6531592,52.0553711 L60.6531592,52.0553711 L60.539458,52.1391602 L60.539458,52.1391602 L60.3761865,52.244043 C60.0965625,52.4101562 59.66625,52.6 59.16,52.6 C58.3129412,52.6 57.5721799,52.1748097 57.4379402,51.3244291 L57.42,51.16 L61.32,51.16 L61.32,50.5 C61.32,49.06 60.48,47.86 58.86,47.86 Z M89.64,47.86 C89.0147368,47.86 88.4837119,48.0080886 88.0979414,48.1639714 L87.8628401,48.2675084 C87.8274297,48.2844438 87.7939525,48.3010905 87.7624785,48.3172562 L87.598233,48.4069369 L87.598233,48.4069369 L87.42,48.52 L87.96,49.54 L88.0416,49.48384 L88.0416,49.48384 L88.1777778,49.4 C88.4533333,49.24 88.96,49 89.52,49 C90.08,49 90.5354667,49.2613333 90.5937067,49.8815644 L90.6,50.02 L90.6,50.08 L90.1006883,50.0849562 L90.1006883,50.0849562 L89.8555078,50.0963896 L89.8555078,50.0963896 L89.5899672,50.1173619 L89.5899672,50.1173619 L89.310233,50.1504745 C88.2660563,50.2973241 87.06,50.7414667 87.06,52.06 C87.06,53.2 87.96,53.8 88.98,53.8 C89.97,53.8 90.42,53.26 90.583125,52.99 L90.633675,52.89832 L90.633675,52.89832 L90.66,52.84 L90.72,52.84 L90.6963848,52.9061224 C90.6837901,52.9502041 90.669621,53.0163265 90.6633236,53.1044898 L90.66,53.2 L90.66,53.68 L92.04,53.68 L92.04,50.14 C92.04,48.7 91.14,47.86 89.64,47.86 Z M71.64,47.86 C70.8410526,47.86 70.2231025,48.0812188 69.8443651,48.2675084 L69.6618545,48.3641172 L69.6618545,48.3641172 L69.5288905,48.4445604 L69.5288905,48.4445604 L69.42,48.52 L69.96,49.54 L70.03536,49.48384 L70.03536,49.48384 L70.1622222,49.4 C70.42,49.24 70.9,49 71.46,49 C72.02,49 72.5277333,49.2613333 72.5929422,49.8815644 L72.6,50.02 L72.6,50.08 L72.1611556,50.08208 L72.1611556,50.08208 L71.9292444,50.09024 L71.9292444,50.09024 L71.6712,50.10736 L71.6712,50.10736 L71.3939556,50.13632 C70.3506667,50.2677333 69.06,50.696 69.06,52.06 C69.06,53.2 69.96,53.8 70.92,53.8 C71.8231579,53.8 72.3049861,53.3505817 72.5192331,53.0667386 L72.5996763,52.9497303 L72.5996763,52.9497303 L72.6454789,52.869672 L72.6454789,52.869672 L72.66,52.84 L72.66,53.68 L73.98,53.68 L73.98,50.14 C73.98,48.7 73.14,47.86 71.64,47.86 Z M16.44,45.7 L15.06,45.7 L15.06,48.52 L15.0307129,48.4758332 L15.0307129,48.4758332 L14.9742732,48.4069369 L14.9742732,48.4069369 L14.8834028,48.3172562 C14.6644321,48.1232687 14.2136842,47.86 13.38,47.86 C11.88,47.86 10.86,49 10.86,50.86 C10.86,52.6 11.82,53.8 13.32,53.8 C14.286,53.8 14.7816,53.3296 14.99202,53.04736 L15.06528,52.93984 L15.06528,52.93984 L15.12,52.84 L15.12,53.68 L16.44,53.68 L16.44,45.7 Z M52.02,47.86 C50.28,47.86 48.96,49.06 48.96,50.86 C48.96,52.6 50.28,53.8 52.02,53.8 C53.76,53.8 55.14,52.6 55.14,50.86 C55.14,49.06 53.76,47.86 52.02,47.86 Z M28.14,47.86 C26.46,47.86 25.26,49.06 25.26,50.86 C25.26,52.42 26.4,53.8 28.32,53.8 C29.3052632,53.8 29.9815512,53.406759 30.3104272,53.1583963 L30.4374078,53.056014 L30.4374078,53.056014 L30.54,52.96 L30.06,52 L29.982085,52.0553711 L29.982085,52.0553711 L29.851626,52.1391602 L29.851626,52.1391602 L29.6673779,52.244043 C29.3545313,52.4101562 28.88625,52.6 28.38,52.6 C27.5894118,52.6 26.8519723,52.1748097 26.7179279,51.3244291 L26.7,51.16 L30.66,51.16 L30.66,50.5 C30.66,49.06 29.76,47.86 28.14,47.86 Z M82.08,45.7 L80.7,45.7 L80.7,53.68 L81.96,53.68 L81.96,52.96 L82.0111093,53.0292449 L82.0111093,53.0292449 L82.1031915,53.1352493 C82.3347405,53.3814533 82.8529412,53.8 83.7,53.8 C85.14,53.8 86.28,52.66 86.28,50.86 C86.28,49.06 85.32,47.86 83.76,47.86 C82.8335294,47.86 82.3362327,48.3607029 82.1576607,48.5889645 L82.1003216,48.6678567 L82.1003216,48.6678567 L82.08,48.7 L82.08,45.7 Z M46.68,46.42 L45.3,46.42 L45.3,48.1 L44.58,48.1 L44.58,49.24 L45.3,49.24 L45.3,51.58 C45.3,53.0885714 46.2260204,53.56 47.0303353,53.6927697 L47.2458892,53.7211079 L47.2458892,53.7211079 L47.4506851,53.7358017 C47.4836589,53.7372886 47.5159876,53.7383382 47.5475729,53.739016 L48.06,53.74 L48.06,52.42 L48.0244444,52.4511111 C47.98,52.4866667 47.9,52.54 47.82,52.54 C47.4247059,52.54 46.7636678,52.3805536 46.6872664,51.6114594 L46.68,51.46 L46.68,49.24 L47.94,49.24 L47.94,48.1 L46.68,48.1 L46.68,46.42 Z M39.72,46.42 L38.34,46.42 L38.34,48.1 L37.62,48.1 L37.62,49.24 L38.34,49.24 L38.34,51.58 C38.34,53.0885714 39.2660204,53.56 40.0703353,53.6927697 L40.2858892,53.7211079 L40.2858892,53.7211079 L40.4906851,53.7358017 C40.5236589,53.7372886 40.5559876,53.7383382 40.5875729,53.739016 L41.1,53.74 L41.1,52.42 L41.0644444,52.4511111 C41.02,52.4866667 40.94,52.54 40.86,52.54 C40.5211765,52.54 39.8103114,52.3805536 39.7278526,51.6114594 L39.72,51.46 L39.72,49.24 L40.98,49.24 L40.98,48.1 L39.72,48.1 L39.72,46.42 Z M103.02,47.92 L102.78,47.92 C101.932941,47.92 101.245329,48.4514879 101.017297,49.2143293 L100.98,49.36 L100.98,47.98 L99.6,47.98 L99.6,53.68 L101.04,53.68 L101.04,51.46 C101.04,51.04 101.04,50.74 101.1,50.5 C101.38,49.66 101.9736,49.3426667 102.539324,49.3040889 L102.66,49.3 L103.02,49.3 L103.02,47.92 Z M24.6,47.92 L24.36,47.92 C23.51625,47.92 22.8834375,48.4473437 22.6098779,49.2054004 L22.56,49.36 L22.56,47.98 L21.18,47.98 L21.18,53.68 L22.62,53.68 L22.6202778,51.2597222 C22.6216667,50.9416667 22.63,50.7 22.68,50.5 C22.96125,49.65625 23.6116406,49.3398437 24.1862256,49.3035889 L24.3,49.3 L24.6,49.3 L24.6,47.92 Z M19.56,47.98 L18.12,47.98 L18.12,53.68 L19.56,53.68 L19.56,47.98 Z M96.66,51.04 L96.66,51.22 C96.66,51.88 96.12,52.72 95.34,52.72 C94.74,52.72 94.5,52.36 94.5,52 C94.5,51.2610526 95.5231579,51.0606094 96.2940691,51.0415571 L96.66,51.04 Z M72.6,51.04 L72.6,51.22 C72.6,51.88 72.06,52.72 71.34,52.72 C70.74,52.72 70.5,52.36 70.5,52 C70.5,51.35 71.2916667,51.1166667 71.9375,51.0569444 L72.1858333,51.0417387 L72.1858333,51.0417387 L72.3,51.04 L72.6,51.04 Z M90.6,51.04 L90.6,51.22 C90.6,51.88 90.06,52.72 89.28,52.72 C88.8,52.72 88.5,52.36 88.5,52 C88.5,51.3842105 89.2105263,51.1423823 89.8639743,51.0678525 L90.1204899,51.0464732 L90.1204899,51.0464732 L90.36,51.04 L90.6,51.04 Z M83.4,49.06 C84.24,49.06 84.84,49.78 84.84,50.86 C84.84,52 84.24,52.6 83.4,52.6 C82.5,52.6 82.08,51.76 82.08,50.86 C82.08,49.6 82.74,49.06 83.4,49.06 Z M65.4,49.06 C66.24,49.06 66.78,49.78 66.78,50.86 C66.78,52 66.18,52.6 65.4,52.6 C64.44,52.6 63.96,51.76 63.96,50.86 C63.96,49.6 64.68,49.06 65.4,49.06 Z M13.74,49.06 C14.64,49.06 15.06,49.9 15.06,50.86 C15.06,52.06 14.4,52.6 13.74,52.6 C12.9,52.6 12.3,51.88 12.3,50.86 C12.3,49.66 12.9,49.06 13.74,49.06 Z M52.02,49.06 C52.92,49.06 53.7,49.78 53.7,50.86 C53.7,51.88 52.92,52.6 52.02,52.6 C51.12,52.6 50.28,51.88 50.28,50.86 C50.28,49.78 51.12,49.06 52.02,49.06 Z M28.08,48.94 C28.696,48.94 29.1552,49.3058667 29.2136889,49.9888178 L29.22,50.14 L26.76,50.14 C26.88,49.36 27.42,48.94 28.08,48.94 Z M58.86,48.94 C59.42,48.94 59.8232,49.3058667 59.8744711,49.9888178 L59.88,50.14 L57.48,50.14 C57.54,49.36 58.08,48.94 58.86,48.94 Z M19.56,45.7 L18.12,45.7 L18.12,47.02 L19.56,47.02 L19.56,45.7 Z M44.1,31.48 C42.9,31.48 42,32.08 42,33.16 C42,34.09 42.675,34.525 43.35,34.8325 L44.0424654,35.1299171 C44.4210459,35.2991837 44.7,35.47 44.7,35.74 C44.7,36.16 44.34,36.28 43.98,36.28 C43.44,36.28 43.0139063,36.0901562 42.7444336,35.924043 L42.588457,35.8191602 L42.588457,35.8191602 L42.4816992,35.7353711 L42.4816992,35.7353711 L42.42,35.68 L41.76,36.7 L41.8216446,36.7562123 C41.8352121,36.7679691 41.8509754,36.781318 41.8688905,36.796014 L42.0018545,36.8983963 C42.3443767,37.146759 43.0357895,37.54 43.98,37.54 C45.3,37.54 46.14,36.76 46.14,35.74 C46.14,34.8733333 45.5140741,34.4517695 44.8649657,34.1538455 L44.5659259,34.0239506 L44.5659259,34.0239506 L44.14,33.8466667 C43.74,33.6733333 43.44,33.5 43.44,33.22 C43.44,32.86 43.74,32.68 44.1,32.68 C44.66,32.68 45.0866667,32.92 45.3088889,33.08 L45.41712,33.16384 L45.41712,33.16384 L45.48,33.22 L46.02,32.14 L45.9586688,32.0855933 C45.7683737,31.9276125 45.1376471,31.48 44.1,31.48 Z M24.72,31.48 C23.7666667,31.48 23.0637037,31.8868519 22.7467284,32.1128807 L22.5906173,32.233251 L22.5906173,32.233251 L22.56,32.26 L23.1,33.22 L23.17536,33.16384 L23.17536,33.16384 L23.3022222,33.08 C23.56,32.92 24.04,32.68 24.6,32.68 C25.1625,32.68 25.6195313,32.8909375 25.6744629,33.5600049 L25.68,33.7 L25.68,33.76 L25.2975464,33.7629102 L25.2975464,33.7629102 L24.9392134,33.7816824 L24.9392134,33.7816824 L24.6707479,33.8073676 L24.6707479,33.8073676 L24.3866811,33.846441 C23.373205,34.0094798 22.2,34.4634483 22.2,35.68 C22.2,36.82 23.1,37.54 24.06,37.54 C24.9631579,37.54 25.4449861,37.0624931 25.6592331,36.7609098 L25.7396763,36.6365884 L25.7396763,36.6365884 L25.8,36.52 L25.8,37.36 L27.12,37.36 L27.12,33.76 C27.12,32.32 26.16,31.48 24.72,31.48 Z M100.5,31.48 C99.3,31.48 98.28,32.08 98.28,33.16 C98.28,34.09 98.985,34.525 99.69,34.8325 L100.413242,35.1299171 C100.808648,35.2991837 101.1,35.47 101.1,35.74 C101.1,36.16 100.74,36.28 100.32,36.28 C99.72,36.28 99.2533333,36.0133333 99.0088889,35.8355556 L98.8896,35.7424 L98.8896,35.7424 L98.82,35.68 L98.16,36.7 L98.2138504,36.7562123 C98.2258172,36.7679691 98.2397784,36.781318 98.2557341,36.796014 L98.3754017,36.8983963 C98.6865374,37.146759 99.3347368,37.54 100.32,37.54 C101.7,37.54 102.54,36.76 102.54,35.74 C102.54,34.84 101.835,34.42 101.13,34.12 L100.406758,33.8280904 C100.011352,33.6608163 99.72,33.49 99.72,33.22 C99.72,32.86 100.14,32.68 100.5,32.68 C101.06,32.68 101.486667,32.92 101.708889,33.08 L101.81712,33.16384 L101.81712,33.16384 L101.88,33.22 L102.36,32.14 L102.334989,32.1147446 C102.318282,32.0986241 102.293173,32.075518 102.259564,32.0475758 L102.133141,31.9513902 C101.854256,31.7563322 101.315294,31.48 100.5,31.48 Z M77.94,31.48 C76.32,31.48 75.12,32.8 75.12,34.54 C75.12,36.16 76.26,37.54 78.12,37.54 C79.1052632,37.54 79.8096399,37.146759 80.156256,36.8983963 L80.2905496,36.796014 L80.2905496,36.796014 L80.4,36.7 L79.86,35.68 L79.7923682,35.7353711 L79.7923682,35.7353711 L79.6757959,35.8191602 L79.6757959,35.8191602 L79.5061377,35.924043 C79.2135938,36.0901562 78.75375,36.28 78.18,36.28 C77.3894118,36.28 76.7051211,35.8016609 76.5773295,34.9450275 L76.56,34.78 L80.46,34.78 L80.46,34.24 C80.46,32.68 79.62,31.48 77.94,31.48 Z M62.94,31.48 C61.2,31.48 60.06,32.8 60.06,34.54 C60.06,36.16 61.2,37.54 63.06,37.54 C63.9315789,37.54 64.6116898,37.2049307 64.9945211,36.9580376 L65.1606736,36.8438985 C65.1840735,36.8267532 65.2052865,36.81071 65.2242513,36.796014 L65.34,36.7 L64.8,35.68 L64.7276221,35.7353711 L64.7276221,35.7353711 L64.605542,35.8191602 L64.605542,35.8191602 L64.4317822,35.924043 C64.1355469,36.0901562 63.68625,36.28 63.18,36.28 C62.3894118,36.28 61.6519723,35.8016609 61.5179279,34.9450275 L61.5,34.78 L65.34,34.78 L65.3810156,34.4635937 L65.3810156,34.4635937 L65.3974219,34.2976562 C65.3990625,34.2746875 65.4,34.255 65.4,34.24 C65.4,32.68 64.5,31.48 62.94,31.48 Z M50.1,31.48 C48.18,31.48 46.98,32.86 46.98,34.54 C46.98,36.16 48.18,37.54 50.1,37.54 C51.075,37.54 51.72045,37.1344 52.0528275,36.85048 L52.1840625,36.73 L52.1840625,36.73 L52.2711975,36.63832 L52.2711975,36.63832 L52.32,36.58 L51.84,35.5 L51.7672266,35.5719824 L51.7672266,35.5719824 L51.6437109,35.6809082 C51.3665625,35.9113281 50.82,36.28 50.16,36.28 C49.08,36.28 48.42,35.44 48.42,34.48 C48.42,33.52 49.08,32.68 50.16,32.68 C50.72,32.68 51.1733333,32.9733333 51.4133333,33.1688889 L51.53088,33.27136 L51.53088,33.27136 L51.6,33.34 L52.2,32.38 L52.1402778,32.3133333 L52.1402778,32.3133333 L52.0346193,32.2102469 C51.7490741,31.9494444 51.0966667,31.48 50.1,31.48 Z M36.54,30.1 L35.16,30.1 L35.16,31.72 L34.44,31.72 L34.44,32.86 L35.1,32.86 L35.1,35.32 C35.1,36.7103448 35.9494887,37.1882759 36.714354,37.3461569 L36.9297774,37.3830686 L36.9297774,37.3830686 L37.1357538,37.4056329 L37.1357538,37.4056329 L37.3274419,37.4169199 L37.3274419,37.4169199 L37.5,37.42 L37.5,37.42 C37.6028571,37.42 37.6946939,37.4089796 37.7660641,37.3963848 L37.92,37.36 L37.92,36.16 L37.68,36.16 L37.5460905,36.1545679 C37.1806584,36.1249383 36.6161523,35.9564198 36.5470165,35.2323457 L36.54,35.08 L36.54,32.86 L37.8,32.86 L37.8,31.72 L36.54,31.72 L36.54,30.1 Z M85.08,31.48 C84.01125,31.48 83.4171094,32.1655469 83.1492627,32.5973096 L83.1,32.68 L83.1,31.6 L81.72,31.6 L81.72,37.36 L83.16,37.36 L83.1605556,34.6347222 C83.1633333,34.4 83.18,34.2 83.28,34 C83.46,33.34 84,32.8 84.78,32.8 C85.455,32.8 85.6553906,33.2746094 85.6778027,33.8777588 L85.68,34 L85.68,37.36 L87.06,37.36 L87.06,33.7 C87.06,32.14 86.34,31.48 85.08,31.48 Z M92.04,31.48 C90.97125,31.48 90.324375,32.1655469 90.0499365,32.5973096 L90,32.68 L90,31.6 L88.62,31.6 L88.62,37.36 L90.06,37.36 L90.06048,34.60672 C90.0624,34.384 90.072,34.192 90.12,34 C90.36,33.34 90.9,32.8 91.68,32.8 C92.355,32.8 92.5553906,33.2746094 92.5778027,33.8777588 L92.58,34 L92.58,37.36 L94.02,37.36 L94.02,33.7 C94.02,32.14 93.24,31.48 92.04,31.48 Z M70.8,29.38 L69.36,29.38 L69.36,37.36 L70.8,37.36 L70.8,34.84 L71.46,34.84 L72.96,37.36 L74.64,37.36 L72.6,34.24 L74.4,31.6 L72.84,31.6 L71.46,33.7 L70.8,33.7 L70.8,29.38 Z M40.62,31.6 L39.18,31.6 L39.18,37.36 L40.62,37.36 L40.62,31.6 Z M54.9,29.38 L53.58,29.38 L53.58,37.36 L54.9,37.36 L54.9,34.78 L54.909375,34.5653125 L54.909375,34.5653125 L54.950625,34.1809375 C54.95625,34.12 54.96,34.06 54.96,34 C55.2,33.34 55.8,32.8 56.58,32.8 C57.196,32.8 57.4461333,33.2704 57.4767467,33.8697244 L57.48,34 L57.48,37.36 L58.86,37.36 L58.86,33.7 C58.86,32.14 58.14,31.48 56.88,31.48 C55.984,31.48 55.2970667,32.0026667 54.9655467,32.5113956 L54.9,32.62 L54.9,29.38 Z M30.06,29.38 L28.68,29.38 L28.68,37.36 L30.06,37.36 L30.06,34.84 L30.78,34.84 L32.28,37.36 L33.9,37.36 L31.92,34.24 L33.66,31.6 L32.16,31.6 L30.78,33.7 L30.06,33.7 L30.06,29.38 Z M96.96,31.6 L95.58,31.6 L95.58,37.36 L96.96,37.36 L96.96,31.6 Z M21.6,31.54 L21.36,31.54 C20.5129412,31.54 19.8253287,32.1777855 19.597297,32.8530877 L19.56,32.98 L19.44,32.98 L19.4637901,32.9506122 C19.4917784,32.9114286 19.5365598,32.8330612 19.5533528,32.7155102 L19.56,32.62 L19.56,31.6 L18.18,31.6 L18.18,37.36 L19.56,37.36 L19.56,35.08 C19.56,34.78 19.62,34.48 19.68,34.18 C19.98,33.34 20.64,32.92 21.18,32.92 C21.2828571,32.92 21.3746939,32.9310204 21.4460641,32.9436152 L21.6,32.98 L21.6,31.54 Z M14.46,29.38 L11.46,29.38 L11.46,37.36 L12.9,37.36 L12.9,34.6 L14.46,34.6 C15.96,34.6 17.04,33.52 17.04,32.02 C17.04,30.4623077 16.0414793,29.4593491 14.6311755,29.3845027 L14.46,29.38 Z M25.74,34.78 L25.74,34.9 C25.74,35.62 25.2,36.4 24.42,36.4 C23.82,36.4 23.52,36.04 23.52,35.68 C23.52,35.092 24.108,34.8862 24.70776,34.81564 L24.96384,34.79296 L24.96384,34.79296 L25.21128,34.78252 L25.21128,34.78252 L25.44,34.78 L25.74,34.78 Z M62.82,32.62 C63.436,32.62 63.8952,32.9336 63.9536889,33.6095822 L63.96,33.76 L61.5,33.76 C61.62,33.1 62.16,32.62 62.82,32.62 Z M77.94,32.62 C78.556,32.62 78.9629333,32.9336 79.0144533,33.6095822 L79.02,33.76 L76.62,33.76 C76.68,33.1 77.22,32.62 77.94,32.62 Z M14.22,30.64 C15.06,30.64 15.54,31.18 15.54,32.02 C15.54,32.8105882 15.1148097,33.3354325 14.3644738,33.3944433 L14.22,33.4 L12.9,33.4 L12.9,30.64 L14.22,30.64 Z M96.96,29.38 L95.58,29.38 L95.58,30.64 L96.96,30.64 L96.96,29.38 Z M40.56,29.38 L39.18,29.38 L39.18,30.64 L40.56,30.64 L40.56,29.38 Z" id="Shape" fill="#009FE3"></path>
    </g>
</svg>