<?xml version="1.0" encoding="UTF-8"?>
<svg width="24px" height="380px" viewBox="0 0 24 380" version="1.1" xmlns="http://www.w3.org/2000/svg" xmlns:xlink="http://www.w3.org/1999/xlink">
    <title>crow-specStatus-tvl</title>
    <g id="crow-specStatus-tvl" stroke="none" stroke-width="1" fill="none" fill-rule="evenodd">
        <rect id="Rectangle-Copy" fill="#E08A00" transform="translate(12.000000, 190.000000) rotate(-90.000000) translate(-12.000000, -190.000000) " x="-178" y="178" width="380" height="24"></rect>
        <path d="M-49.18,97.05 L-49.18,84.65 L-44.34,84.65 L-44.34,82.93 L-56,82.93 L-56,84.65 L-51.16,84.65 L-51.16,97.05 L-49.18,97.05 Z M-39.8,97.29 C-37.38,97.29 -35.88,95.85 -35.88,95.85 L-36.68,94.43 C-36.68,94.43 -37.94,95.61 -39.68,95.61 C-41.48,95.61 -43.06,94.49 -43.16,92.27 L-35.78,92.27 C-35.78,92.27 -35.72,91.69 -35.72,91.43 C-35.72,88.81 -37.24,86.69 -40.1,86.69 C-42.98,86.69 -45.16,88.77 -45.16,91.99 C-45.16,94.99 -42.98,97.29 -39.8,97.29 Z M-37.7,90.81 L-43.1,90.81 C-42.82,89.15 -41.62,88.23 -40.14,88.23 C-38.84,88.23 -37.76,89.07 -37.7,90.81 Z M-31.42,97.05 L-31.42,92.91 C-31.42,92.29 -31.36,91.67 -31.18,91.09 C-30.72,89.59 -29.58,88.71 -28.34,88.71 C-28.04,88.71 -27.78,88.77 -27.78,88.77 L-27.78,86.85 C-27.78,86.85 -28.02,86.81 -28.28,86.81 C-29.84,86.81 -31.02,87.97 -31.48,89.45 L-31.52,89.45 C-31.52,89.45 -31.48,89.11 -31.48,88.69 L-31.48,86.93 L-33.36,86.93 L-33.36,97.05 L-31.42,97.05 Z M-21.22,97.05 L-17.48,86.93 L-19.52,86.93 L-21.98,93.77 C-22.18,94.33 -22.32,95.15 -22.34,95.15 L-22.38,95.15 C-22.4,95.15 -22.52,94.33 -22.72,93.77 L-25.18,86.93 L-27.24,86.93 L-23.46,97.05 L-21.22,97.05 Z M-13.88,84.91 L-13.88,82.93 L-15.84,82.93 L-15.84,84.91 L-13.88,84.91 Z M-13.88,97.05 L-13.88,86.93 L-15.82,86.93 L-15.82,97.05 L-13.88,97.05 Z M-7.82,97.29 C-5.6,97.29 -4.16,96.03 -4.16,94.35 C-4.16,91.03 -9.36,91.43 -9.36,89.61 C-9.36,88.73 -8.54,88.37 -7.7,88.37 C-6.1,88.37 -5.2,89.27 -5.2,89.27 L-4.42,87.81 L-4.44003968,87.7896429 C-4.593952,87.637968 -5.6376,86.69 -7.68,86.69 C-9.7,86.69 -11.34,87.73 -11.34,89.57 C-11.34,92.87 -6.14,92.49 -6.14,94.35 C-6.14,95.17 -6.98,95.61 -7.82,95.61 C-9.42695652,95.61 -10.517051,94.6262949 -10.6944818,94.4552157 L-10.72,94.43 L-10.72,94.43 L-11.66,95.81 C-11.66,95.81 -10.3,97.29 -7.82,97.29 Z M0.06,84.91 L0.06,82.93 L-1.9,82.93 L-1.9,84.91 L0.06,84.91 Z M0.06,97.05 L0.06,86.93 L-1.88,86.93 L-1.88,97.05 L0.06,97.05 Z M7.76,97.29 C10.18,97.29 11.68,95.85 11.68,95.85 L10.88,94.43 C10.88,94.43 9.62,95.61 7.88,95.61 C6.08,95.61 4.5,94.49 4.4,92.27 L11.78,92.27 C11.78,92.27 11.84,91.69 11.84,91.43 C11.84,88.81 10.32,86.69 7.46,86.69 C4.58,86.69 2.4,88.77 2.4,91.99 C2.4,94.99 4.58,97.29 7.76,97.29 Z M9.86,90.81 L4.46,90.81 C4.74,89.15 5.94,88.23 7.42,88.23 C8.72,88.23 9.8,89.07 9.86,90.81 Z M16.8,97.13 C17.14,97.13 17.44,97.09 17.44,97.09 L17.44,95.37 C17.44,95.37 17.28,95.39 17.1,95.39 C16.5,95.39 16.02,95.17 16.02,93.95 L16.02,82.93 L14.08,82.93 L14.08,94.29 C14.08,96.83 15.7,97.13 16.8,97.13 Z M24.16,97.29 C26.58,97.29 28.08,95.85 28.08,95.85 L27.28,94.43 C27.28,94.43 26.02,95.61 24.28,95.61 C22.48,95.61 20.9,94.49 20.8,92.27 L28.18,92.27 C28.18,92.27 28.24,91.69 28.24,91.43 C28.24,88.81 26.72,86.69 23.86,86.69 C20.98,86.69 18.8,88.77 18.8,91.99 C18.8,94.99 20.98,97.29 24.16,97.29 Z M26.26,90.81 L20.86,90.81 C21.14,89.15 22.34,88.23 23.82,88.23 C25.12,88.23 26.2,89.07 26.26,90.81 Z M34.32,101.25 C36.88,101.25 39.42,99.97 39.42,96.63 L39.42,86.93 L37.56,86.93 L37.56,87.87 C37.56,88.05 37.58,88.19 37.58,88.19 L37.54,88.19 C37.54,88.19 36.8,86.69 34.36,86.69 C31.56,86.69 29.94,88.85 29.94,91.75 C29.94,94.67 31.64,96.93 34.46,96.93 C35.92,96.93 36.86,96.35 37.46,95.35 L37.5,95.35 C37.5,95.35 37.48,95.67 37.48,95.99 L37.48,96.73 C37.48,98.79 36.04,99.57 34.28,99.57 C32.76,99.57 31.5,98.89 31.5,98.89 L30.86,100.41 C31.84,100.91 33.1,101.25 34.32,101.25 Z M34.84,95.25 C33.02,95.25 31.9,93.81 31.9,91.71 C31.9,89.65 32.9,88.37 34.66,88.37 C36.24,88.37 37.52,89.13 37.52,91.77 C37.52,94.41 36.24,95.25 34.84,95.25 Z M46.18,101.25 C48.74,101.25 51.28,99.97 51.28,96.63 L51.28,86.93 L49.42,86.93 L49.42,87.87 C49.42,88.05 49.44,88.19 49.44,88.19 L49.4,88.19 C49.4,88.19 48.66,86.69 46.22,86.69 C43.42,86.69 41.8,88.85 41.8,91.75 C41.8,94.67 43.5,96.93 46.32,96.93 C47.78,96.93 48.72,96.35 49.32,95.35 L49.36,95.35 C49.36,95.35 49.34,95.67 49.34,95.99 L49.34,96.73 C49.34,98.79 47.9,99.57 46.14,99.57 C44.62,99.57 43.36,98.89 43.36,98.89 L42.72,100.41 C43.7,100.91 44.96,101.25 46.18,101.25 Z M46.7,95.25 C44.88,95.25 43.76,93.81 43.76,91.71 C43.76,89.65 44.76,88.37 46.52,88.37 C48.1,88.37 49.38,89.13 49.38,91.77 C49.38,94.41 48.1,95.25 46.7,95.25 Z M56.26,84.91 L56.26,82.93 L54.3,82.93 L54.3,84.91 L56.26,84.91 Z M56.26,97.05 L56.26,86.93 L54.32,86.93 L54.32,97.05 L56.26,97.05 Z M61.24,97.05 L61.24,92.31 C61.24,91.81 61.28,91.35 61.4,90.95 C61.82,89.49 63.06,88.47 64.6,88.47 C66.22,88.47 66.52,89.59 66.52,91.01 L66.52,97.05 L68.46,97.05 L68.46,90.57 C68.46,87.99 67.36,86.69 64.98,86.69 C62.78,86.69 61.58,88.13 61.18,89.01 L61.14,89.01 C61.14,89.01 61.18,88.67 61.18,88.27 L61.18,86.93 L59.3,86.93 L59.3,97.05 L61.24,97.05 Z M75.08,101.25 C77.64,101.25 80.18,99.97 80.18,96.63 L80.18,86.93 L78.32,86.93 L78.32,87.87 C78.32,88.05 78.34,88.19 78.34,88.19 L78.3,88.19 C78.3,88.19 77.56,86.69 75.12,86.69 C72.32,86.69 70.7,88.85 70.7,91.75 C70.7,94.67 72.4,96.93 75.22,96.93 C76.68,96.93 77.62,96.35 78.22,95.35 L78.26,95.35 C78.26,95.35 78.24,95.67 78.24,95.99 L78.24,96.73 C78.24,98.79 76.8,99.57 75.04,99.57 C73.52,99.57 72.26,98.89 72.26,98.89 L71.62,100.41 C72.6,100.91 73.86,101.25 75.08,101.25 Z M75.6,95.25 C73.78,95.25 72.66,93.81 72.66,91.71 C72.66,89.65 73.66,88.37 75.42,88.37 C77,88.37 78.28,89.13 78.28,91.77 C78.28,94.41 77,95.25 75.6,95.25 Z" id="Tervisielegging" fill="#FFFFFF" fill-rule="nonzero" transform="translate(12.090000, 92.090000) rotate(-90.000000) translate(-12.090000, -92.090000) "></path>
    </g>
</svg>