<?xml version="1.0" encoding="UTF-8"?>
<svg width="24px" height="380px" viewBox="0 0 24 380" version="1.1" xmlns="http://www.w3.org/2000/svg" xmlns:xlink="http://www.w3.org/1999/xlink">
    <title>crow-specStatusHist-resc</title>
    <g id="crow-specStatusHist-resc" stroke="none" stroke-width="1" fill="none" fill-rule="evenodd">
        <rect id="Rectangle-Copy" fill="#FF5500" transform="translate(12.000000, 190.000000) rotate(-90.000000) translate(-12.000000, -190.000000) " x="-178" y="178" width="380" height="24"></rect>
        <path d="M-40.02,83.29 L-40.02,69.17 L-42,69.17 L-42,83.29 L-40.02,83.29 Z M-34.64,83.29 L-34.64,78.55 C-34.64,78.05 -34.6,77.59 -34.48,77.19 C-34.06,75.73 -32.82,74.71 -31.28,74.71 C-29.66,74.71 -29.36,75.83 -29.36,77.25 L-29.36,83.29 L-27.42,83.29 L-27.42,76.81 C-27.42,74.23 -28.52,72.93 -30.9,72.93 C-33.1,72.93 -34.3,74.37 -34.7,75.25 L-34.74,75.25 C-34.74,75.25 -34.7,74.91 -34.7,74.51 L-34.7,73.17 L-36.58,73.17 L-36.58,83.29 L-34.64,83.29 Z M-20.8,87.49 C-18.24,87.49 -15.7,86.21 -15.7,82.87 L-15.7,73.17 L-17.56,73.17 L-17.56,74.11 C-17.56,74.29 -17.54,74.43 -17.54,74.43 L-17.58,74.43 C-17.58,74.43 -18.32,72.93 -20.76,72.93 C-23.56,72.93 -25.18,75.09 -25.18,77.99 C-25.18,80.91 -23.48,83.17 -20.66,83.17 C-19.2,83.17 -18.26,82.59 -17.66,81.59 L-17.62,81.59 C-17.62,81.59 -17.6358025,81.8428395 -17.6393141,82.1237723 L-17.64,82.97 C-17.64,85.03 -19.08,85.81 -20.84,85.81 C-22.36,85.81 -23.62,85.13 -23.62,85.13 L-24.26,86.65 C-23.28,87.15 -22.02,87.49 -20.8,87.49 Z M-20.28,81.49 C-22.1,81.49 -23.22,80.05 -23.22,77.95 C-23.22,75.89 -22.22,74.61 -20.46,74.61 C-18.88,74.61 -17.6,75.37 -17.6,78.01 C-17.6,80.65 -18.88,81.49 -20.28,81.49 Z M-8,83.53 C-5.58,83.53 -4.08,82.09 -4.08,82.09 L-4.88,80.67 C-4.88,80.67 -6.14,81.85 -7.88,81.85 C-9.68,81.85 -11.26,80.73 -11.36,78.51 L-3.98,78.51 C-3.98,78.51 -3.92,77.93 -3.92,77.67 C-3.92,75.05 -5.44,72.93 -8.3,72.93 C-11.18,72.93 -13.36,75.01 -13.36,78.23 C-13.36,81.23 -11.18,83.53 -8,83.53 Z M-5.9,77.05 L-11.3,77.05 C-11.02,75.39 -9.82,74.47 -8.34,74.47 C-7.04,74.47 -5.96,75.31 -5.9,77.05 Z M2.74,83.37 C3.14,83.37 3.42,83.33 3.42,83.33 L3.42,81.61 C3.42,81.61 3.24,81.65 2.96,81.65 C2.22,81.65 0.8,81.39 0.8,79.37 L0.8,74.87 L3.24,74.87 L3.24,73.31 L0.8,73.31 L0.8,70.39 L-1.08,70.39 L-1.08,73.31 L-2.46,73.31 L-2.46,74.87 L-1.14,74.87 L-1.14,79.59 C-1.14,82.97 1.44,83.37 2.74,83.37 Z M7.54,83.29 L7.54,79.15 C7.54,78.53 7.6,77.91 7.78,77.33 C8.24,75.83 9.38,74.95 10.62,74.95 C10.92,74.95 11.18,75.01 11.18,75.01 L11.18,73.09 C11.18,73.09 10.94,73.05 10.68,73.05 C9.12,73.05 7.94,74.21 7.48,75.69 L7.44,75.69 C7.44,75.69 7.48,75.35 7.48,74.93 L7.48,73.17 L5.6,73.17 L5.6,83.29 L7.54,83.29 Z M17.76,83.53 C20.78,83.53 23.22,81.29 23.22,78.21 C23.22,75.15 20.78,72.93 17.76,72.93 C14.74,72.93 12.3,75.15 12.3,78.21 C12.3,81.29 14.74,83.53 17.76,83.53 Z M17.76,81.85 C15.86,81.85 14.28,80.33 14.28,78.21 C14.28,76.11 15.86,74.61 17.76,74.61 C19.68,74.61 21.24,76.11 21.24,78.21 C21.24,80.33 19.68,81.85 17.76,81.85 Z M27.46,83.29 L27.46,78.53 L28.92,78.53 L31.96,83.29 L34.22,83.29 L30.48,77.67 L30.48,77.63 L33.84,73.17 L31.64,73.17 L28.88,76.89 L27.46,76.89 L27.46,69.17 L25.52,69.17 L25.52,83.29 L27.46,83.29 Z M37.98,83.29 L37.98,78.53 L39.44,78.53 L42.48,83.29 L44.74,83.29 L41,77.67 L41,77.63 L44.36,73.17 L42.16,73.17 L39.4,76.89 L37.98,76.89 L37.98,69.17 L36.04,69.17 L36.04,83.29 L37.98,83.29 Z M51.06,83.53 C53.48,83.53 54.98,82.09 54.98,82.09 L54.18,80.67 C54.18,80.67 52.92,81.85 51.18,81.85 C49.38,81.85 47.8,80.73 47.7,78.51 L55.08,78.51 C55.08,78.51 55.14,77.93 55.14,77.67 C55.14,75.05 53.62,72.93 50.76,72.93 C47.88,72.93 45.7,75.01 45.7,78.23 C45.7,81.23 47.88,83.53 51.06,83.53 Z M53.16,77.05 L47.76,77.05 C48.04,75.39 49.24,74.47 50.72,74.47 C52.02,74.47 53.1,75.31 53.16,77.05 Z M59.44,83.29 L59.44,78.55 C59.44,78.05 59.48,77.59 59.6,77.19 C60.02,75.73 61.26,74.71 62.8,74.71 C64.42,74.71 64.72,75.83 64.72,77.25 L64.72,83.29 L66.66,83.29 L66.66,76.81 C66.66,74.23 65.56,72.93 63.18,72.93 C60.98,72.93 59.78,74.37 59.38,75.25 L59.34,75.25 C59.34,75.25 59.38,74.91 59.38,74.51 L59.38,73.17 L57.5,73.17 L57.5,83.29 L59.44,83.29 Z" id="Ingetrokken" fill="#FFFFFF" fill-rule="nonzero" transform="translate(12.330000, 78.330000) rotate(-90.000000) translate(-12.330000, -78.330000) "></path>
    </g>
</svg>