<?xml version="1.0" encoding="UTF-8"?>
<svg width="24px" height="380px" viewBox="0 0 24 380" version="1.1" xmlns="http://www.w3.org/2000/svg" xmlns:xlink="http://www.w3.org/1999/xlink">
    <title>crow-specStatus-none</title>
    <g id="crow-specStatus-none" stroke="none" stroke-width="1" fill="none" fill-rule="evenodd">
        <rect id="Rectangle-Copy" fill="#DEE4E9" transform="translate(12.000000, 190.000000) rotate(-90.000000) translate(-12.000000, -190.000000) " x="-178" y="178" width="380" height="24"></rect>
        <path d="M-32.24,79.04 C-27.92,79.04 -25.08,76.44 -25.08,71.96 C-25.08,67.5 -27.92,64.92 -32.24,64.92 L-36.92,64.92 L-36.92,79.04 L-32.24,79.04 Z M-32.38,77.32 L-34.94,77.32 L-34.94,66.64 L-32.38,66.64 C-29.22,66.64 -27.12,68.5 -27.12,71.96 C-27.12,75.44 -29.2,77.32 -32.38,77.32 Z M-17.8,79.28 C-14.78,79.28 -12.34,77.04 -12.34,73.96 C-12.34,70.9 -14.78,68.68 -17.8,68.68 C-20.82,68.68 -23.26,70.9 -23.26,73.96 C-23.26,77.04 -20.82,79.28 -17.8,79.28 Z M-17.8,77.6 C-19.7,77.6 -21.28,76.08 -21.28,73.96 C-21.28,71.86 -19.7,70.36 -17.8,70.36 C-15.88,70.36 -14.32,71.86 -14.32,73.96 C-14.32,76.08 -15.88,77.6 -17.8,77.6 Z M-5.34,79.28 C-2.7,79.28 -1.3,77.66 -1.3,77.66 L-2.08,76.24 C-2.08,76.24 -3.32,77.6 -5.2,77.6 C-7.3,77.6 -8.78,76.02 -8.78,73.96 C-8.78,71.88 -7.3,70.36 -5.26,70.36 C-3.76434783,70.36 -2.7526276,71.2371267 -2.51414646,71.4659423 L-2.4660886,71.5136122 C-2.46204159,71.5178072 -2.46,71.52 -2.46,71.52 L-1.54,70.16 C-1.54,70.16 -1.55446429,70.1430102 -1.58341746,70.1126713 L-1.6606496,70.0352733 C-2.03081633,69.6786224 -3.25357143,68.68 -5.34,68.68 C-8.52,68.68 -10.76,70.98 -10.76,73.98 C-10.76,77.02 -8.52,79.28 -5.34,79.28 Z M4.22,79.28 C6.2,79.28 7.52,77.96 7.94,76.96 L7.98,76.96 C7.98,76.96 7.94,77.28 7.94,77.7 L7.94,79.04 L9.82,79.04 L9.82,68.92 L7.88,68.92 L7.88,73.66 C7.88,75.66 6.66,77.48 4.6,77.48 C2.98,77.48 2.7,76.36 2.7,74.96 L2.7,68.92 L0.76,68.92 L0.76,75.4 C0.76,78.08 1.94,79.28 4.22,79.28 Z M14.8,79.04 L14.8,74.42 C14.8,73.96 14.82,73.5 14.92,73.1 C15.3,71.66 16.34,70.44 17.82,70.44 C19.38,70.44 19.58,71.66 19.58,72.98 L19.58,79.04 L21.52,79.04 L21.52,74.42 C21.52,73.9 21.56,73.44 21.66,73.02 C22.02,71.64 23.08,70.44 24.5,70.44 C26.02,70.44 26.3,71.56 26.3,72.98 L26.3,79.04 L28.24,79.04 L28.24,72.56 C28.24,69.98 27.18,68.68 24.9,68.68 C23.26,68.68 21.86,69.76 21.3,70.98 L21.26,70.98 C20.92,69.46 19.92,68.68 18.22,68.68 C16.64,68.68 15.22,69.82 14.74,71 L14.7,71 C14.7,71 14.74,70.66 14.74,70.26 L14.74,68.92 L12.86,68.92 L12.86,79.04 L14.8,79.04 Z M35.8,79.28 C38.22,79.28 39.72,77.84 39.72,77.84 L38.92,76.42 C38.92,76.42 37.66,77.6 35.92,77.6 C34.12,77.6 32.54,76.48 32.44,74.26 L39.82,74.26 C39.82,74.26 39.88,73.68 39.88,73.42 C39.88,70.8 38.36,68.68 35.5,68.68 C32.62,68.68 30.44,70.76 30.44,73.98 C30.44,76.98 32.62,79.28 35.8,79.28 Z M37.9,72.8 L32.5,72.8 C32.78,71.14 33.98,70.22 35.46,70.22 C36.76,70.22 37.84,71.06 37.9,72.8 Z M44.18,79.04 L44.18,74.3 C44.18,73.8 44.22,73.34 44.34,72.94 C44.76,71.48 46,70.46 47.54,70.46 C49.16,70.46 49.46,71.58 49.46,73 L49.46,79.04 L51.4,79.04 L51.4,72.56 C51.4,69.98 50.3,68.68 47.92,68.68 C45.72,68.68 44.52,70.12 44.12,71 L44.08,71 C44.08,71 44.12,70.66 44.12,70.26 L44.12,68.92 L42.24,68.92 L42.24,79.04 L44.18,79.04 Z M58.6,79.12 C59,79.12 59.28,79.08 59.28,79.08 L59.28,77.36 C59.28,77.36 59.1,77.4 58.82,77.4 C58.08,77.4 56.66,77.14 56.66,75.12 L56.66,70.62 L59.1,70.62 L59.1,69.06 L56.66,69.06 L56.66,66.14 L54.78,66.14 L54.78,69.06 L53.4,69.06 L53.4,70.62 L54.72,70.62 L54.72,75.34 C54.72,78.72 57.3,79.12 58.6,79.12 Z" id="Document" fill="#000000" fill-rule="nonzero" transform="translate(11.180000, 72.100000) rotate(-90.000000) translate(-11.180000, -72.100000) "></path>
    </g>
</svg>