<?xml version="1.0" encoding="UTF-8"?>
<svg width="24px" height="380px" viewBox="0 0 24 380" version="1.1" xmlns="http://www.w3.org/2000/svg" xmlns:xlink="http://www.w3.org/1999/xlink">
    <title>crow-specStatus-def</title>
    <g id="crow-specStatus-def" stroke="none" stroke-width="1" fill="none" fill-rule="evenodd">
        <rect id="Rectangle-Copy" fill="#009FE3" transform="translate(12.000000, 190.000000) rotate(-90.000000) translate(-12.000000, -190.000000) " x="-178" y="178" width="380" height="24"></rect>
        <path d="M-32.8,81.34 L-27.6,67.22 L-29.7,67.22 L-33.24,77.2 C-33.5,77.96 -33.78,79.14 -33.78,79.14 L-33.82,79.14 C-33.82,79.14 -34.1,77.96 -34.36,77.2 L-37.86,67.22 L-40,67.22 L-34.78,81.34 L-32.8,81.34 Z M-23.76,81.58 C-21.5068966,81.58 -20.6407134,79.8463496 -20.5319562,79.6072254 L-20.52,79.58 L-20.52,79.58 L-20.48,79.58 C-20.48,79.58 -20.52,79.92 -20.52,80.38 L-20.52,81.34 L-18.72,81.34 L-18.72,74.94 C-18.72,72.38 -20.16,70.98 -22.72,70.98 C-25.04,70.98 -26.5,72.18 -26.5,72.18 L-25.7,73.6 C-25.7,73.6 -24.44,72.62 -22.88,72.62 C-21.6,72.62 -20.66,73.18 -20.66,74.84 L-20.66,75.02 L-21.1,75.02 C-22.8,75.02 -27.2,75.16 -27.2,78.5 C-27.2,80.52 -25.5,81.58 -23.76,81.58 Z M-23.34,80.02 C-24.6,80.02 -25.24,79.22 -25.24,78.4 C-25.24,76.58 -22.6,76.48 -21.14,76.48 L-20.64,76.48 L-20.64,76.8 C-20.64,78.3 -21.7,80.02 -23.34,80.02 Z M-12.8,81.58 C-10.58,81.58 -9.14,80.32 -9.14,78.64 C-9.14,75.32 -14.34,75.72 -14.34,73.9 C-14.34,73.02 -13.52,72.66 -12.68,72.66 C-11.08,72.66 -10.18,73.56 -10.18,73.56 L-9.4,72.1 C-9.4,72.1 -10.44,70.98 -12.66,70.98 C-14.68,70.98 -16.32,72.02 -16.32,73.86 C-16.32,77.16 -11.12,76.78 -11.12,78.64 C-11.12,79.46 -11.96,79.9 -12.8,79.9 C-14.56,79.9 -15.7,78.72 -15.7,78.72 L-16.64,80.1 C-16.64,80.1 -15.28,81.58 -12.8,81.58 Z M-2.56,81.42 C-2.16,81.42 -1.88,81.38 -1.88,81.38 L-1.88,79.66 C-1.88,79.66 -2.06,79.7 -2.34,79.7 C-3.08,79.7 -4.5,79.44 -4.5,77.42 L-4.5,72.92 L-2.06,72.92 L-2.06,71.36 L-4.5,71.36 L-4.5,68.44 L-6.38,68.44 L-6.38,71.36 L-7.76,71.36 L-7.76,72.92 L-6.44,72.92 L-6.44,77.64 C-6.44,81.02 -3.86,81.42 -2.56,81.42 Z M4.02,85.54 C6.58,85.54 9.12,84.26 9.12,80.92 L9.12,71.22 L7.26,71.22 L7.26,72.16 C7.26,72.34 7.28,72.48 7.28,72.48 L7.24,72.48 C7.24,72.48 6.5,70.98 4.06,70.98 C1.26,70.98 -0.36,73.14 -0.36,76.04 C-0.36,78.96 1.34,81.22 4.16,81.22 C5.62,81.22 6.56,80.64 7.16,79.64 L7.2,79.64 C7.2,79.64 7.18419753,79.8928395 7.18068587,80.1737723 L7.18,81.02 C7.18,83.08 5.74,83.86 3.98,83.86 C2.46,83.86 1.2,83.18 1.2,83.18 L0.56,84.7 C1.54,85.2 2.8,85.54 4.02,85.54 Z M4.54,79.54 C2.72,79.54 1.6,78.1 1.6,76 C1.6,73.94 2.6,72.66 4.36,72.66 C5.94,72.66 7.22,73.42 7.22,76.06 C7.22,78.7 5.94,79.54 4.54,79.54 Z M16.82,81.58 C19.24,81.58 20.74,80.14 20.74,80.14 L19.94,78.72 C19.94,78.72 18.68,79.9 16.94,79.9 C15.14,79.9 13.56,78.78 13.46,76.56 L20.84,76.56 C20.84,76.56 20.9,75.98 20.9,75.72 C20.9,73.1 19.38,70.98 16.52,70.98 C13.64,70.98 11.46,73.06 11.46,76.28 C11.46,79.28 13.64,81.58 16.82,81.58 Z M18.92,75.1 L13.52,75.1 C13.8,73.44 15,72.52 16.48,72.52 C17.78,72.52 18.86,73.36 18.92,75.1 Z M26.28,81.58 C28.5,81.58 29.94,80.32 29.94,78.64 C29.94,75.32 24.74,75.72 24.74,73.9 C24.74,73.02 25.56,72.66 26.4,72.66 C28,72.66 28.9,73.56 28.9,73.56 L29.68,72.1 C29.68,72.1 28.64,70.98 26.42,70.98 C24.4,70.98 22.76,72.02 22.76,73.86 C22.76,77.16 27.96,76.78 27.96,78.64 C27.96,79.46 27.12,79.9 26.28,79.9 C24.52,79.9 23.38,78.72 23.38,78.72 L22.44,80.1 C22.44,80.1 23.8,81.58 26.28,81.58 Z M36.52,81.42 C36.92,81.42 37.2,81.38 37.2,81.38 L37.2,79.66 C37.2,79.66 37.02,79.7 36.74,79.7 C36,79.7 34.58,79.44 34.58,77.42 L34.58,72.92 L37.02,72.92 L37.02,71.36 L34.58,71.36 L34.58,68.44 L32.7,68.44 L32.7,71.36 L31.32,71.36 L31.32,72.92 L32.64,72.92 L32.64,77.64 C32.64,81.02 35.22,81.42 36.52,81.42 Z M44.04,81.58 C46.46,81.58 47.96,80.14 47.96,80.14 L47.16,78.72 C47.16,78.72 45.9,79.9 44.16,79.9 C42.36,79.9 40.78,78.78 40.68,76.56 L48.06,76.56 C48.06,76.56 48.12,75.98 48.12,75.72 C48.12,73.1 46.6,70.98 43.74,70.98 C40.86,70.98 38.68,73.06 38.68,76.28 C38.68,79.28 40.86,81.58 44.04,81.58 Z M46.14,75.1 L40.74,75.1 C41.02,73.44 42.22,72.52 43.7,72.52 C45,72.52 46.08,73.36 46.14,75.1 Z M53.08,81.42 C53.42,81.42 53.72,81.38 53.72,81.38 L53.72,79.66 C53.72,79.66 53.56,79.68 53.38,79.68 C52.78,79.68 52.3,79.46 52.3,78.24 L52.3,67.22 L50.36,67.22 L50.36,78.58 C50.36,81.12 51.98,81.42 53.08,81.42 Z M59.58,81.58 C62.08,81.58 62.9,79.7 62.9,79.7 L62.94,79.7 C62.94,79.7 62.9241975,79.9212346 62.9206859,80.2513306 L62.92,81.34 L64.76,81.34 L64.76,67.22 L62.82,67.22 L62.82,71.9 C62.82,72.28 62.86,72.58 62.86,72.58 L62.82,72.58 C62.82,72.58 62.04,70.98 59.7,70.98 C57.02,70.98 55.12,73.06 55.12,76.28 C55.12,79.42 56.84,81.58 59.58,81.58 Z M59.96,79.9 C58.28,79.9 57.1,78.48 57.1,76.28 C57.1,73.98 58.42,72.66 60.02,72.66 C61.94,72.66 62.88,74.46 62.88,76.26 C62.88,78.84 61.46,79.9 59.96,79.9 Z" id="Vastgesteld" fill="#FFFFFF" fill-rule="nonzero" transform="translate(12.380000, 76.380000) rotate(-90.000000) translate(-12.380000, -76.380000) "></path>
    </g>
</svg>