<?xml version="1.0" encoding="UTF-8"?>
<svg width="24px" height="380px" viewBox="0 0 24 380" version="1.1" xmlns="http://www.w3.org/2000/svg" xmlns:xlink="http://www.w3.org/1999/xlink">
    <title>crow-specStatus-wd</title>
    <g id="crow-specStatus-wd" stroke="none" stroke-width="1" fill="none" fill-rule="evenodd">
        <rect id="Rectangle-Copy" fill="#FF5500" transform="translate(12.000000, 190.000000) rotate(-90.000000) translate(-12.000000, -190.000000) " x="-178" y="178" width="380" height="24"></rect>
        <path d="M-32.86,80.88 L-30.42,71.72 C-30.18,70.82 -30,69.72 -30,69.72 L-29.96,69.72 C-29.96,69.72 -29.78,70.82 -29.54,71.72 L-27.1,80.88 L-24.8,80.88 L-21.1,66.76 L-23.14,66.76 L-25.74,77.12 C-25.94,77.88 -26,78.62 -26,78.62 L-26.04,78.62 C-26.04,78.62 -26.14,77.9 -26.34,77.12 L-29.1,66.76 L-30.86,66.76 L-33.62,77.12 C-33.82,77.9 -33.92,78.62 -33.92,78.62 L-33.96,78.62 C-33.96,78.62 -34.04,77.88 -34.22,77.12 L-36.72,66.76 L-38.76,66.76 L-35.16,80.88 L-32.86,80.88 Z M-14.66,81.12 C-12.24,81.12 -10.74,79.68 -10.74,79.68 L-11.54,78.26 C-11.54,78.26 -12.8,79.44 -14.54,79.44 C-16.34,79.44 -17.92,78.32 -18.02,76.1 L-10.64,76.1 C-10.64,76.1 -10.58,75.52 -10.58,75.26 C-10.58,72.64 -12.1,70.52 -14.96,70.52 C-17.84,70.52 -20.02,72.6 -20.02,75.82 C-20.02,78.82 -17.84,81.12 -14.66,81.12 Z M-12.56,74.64 L-17.96,74.64 C-17.68,72.98 -16.48,72.06 -15,72.06 C-13.7,72.06 -12.62,72.9 -12.56,74.64 Z M-6.28,80.88 L-6.28,76.74 C-6.28,76.12 -6.22,75.5 -6.04,74.92 C-5.58,73.42 -4.44,72.54 -3.2,72.54 C-2.9,72.54 -2.64,72.6 -2.64,72.6 L-2.64,70.68 C-2.64,70.68 -2.88,70.64 -3.14,70.64 C-4.7,70.64 -5.88,71.8 -6.34,73.28 L-6.38,73.28 C-6.38,73.28 -6.34,72.94 -6.34,72.52 L-6.34,70.76 L-8.22,70.76 L-8.22,80.88 L-6.28,80.88 Z M1.22,80.88 L1.22,76.12 L2.68,76.12 L5.72,80.88 L7.98,80.88 L4.24,75.26 L4.24,75.22 L7.6,70.76 L5.4,70.76 L2.64,74.48 L1.22,74.48 L1.22,66.76 L-0.72,66.76 L-0.72,80.88 L1.22,80.88 Z M14.44,80.88 L18.18,70.76 L16.14,70.76 L13.68,77.6 C13.48,78.16 13.34,78.98 13.32,78.98 L13.28,78.98 C13.26,78.98 13.14,78.16 12.94,77.6 L10.48,70.76 L8.42,70.76 L12.2,80.88 L14.44,80.88 Z M24.5,81.12 C26.92,81.12 28.42,79.68 28.42,79.68 L27.62,78.26 C27.62,78.26 26.36,79.44 24.62,79.44 C22.82,79.44 21.24,78.32 21.14,76.1 L28.52,76.1 C28.52,76.1 28.58,75.52 28.58,75.26 C28.58,72.64 27.06,70.52 24.2,70.52 C21.32,70.52 19.14,72.6 19.14,75.82 C19.14,78.82 21.32,81.12 24.5,81.12 Z M26.6,74.64 L21.2,74.64 C21.48,72.98 22.68,72.06 24.16,72.06 C25.46,72.06 26.54,72.9 26.6,74.64 Z M32.88,80.88 L32.88,76.74 C32.88,76.12 32.94,75.5 33.12,74.92 C33.58,73.42 34.72,72.54 35.96,72.54 C36.26,72.54 36.52,72.6 36.52,72.6 L36.52,70.68 C36.52,70.68 36.28,70.64 36.02,70.64 C34.46,70.64 33.28,71.8 32.82,73.28 L32.78,73.28 C32.78,73.28 32.82,72.94 32.82,72.52 L32.82,70.76 L30.94,70.76 L30.94,80.88 L32.88,80.88 Z M41.46,81.12 C43.68,81.12 45.12,79.86 45.12,78.18 C45.12,74.86 39.92,75.26 39.92,73.44 C39.92,72.56 40.74,72.2 41.58,72.2 C43.18,72.2 44.08,73.1 44.08,73.1 L44.86,71.64 C44.86,71.64 43.82,70.52 41.6,70.52 C39.58,70.52 37.94,71.56 37.94,73.4 C37.94,76.7 43.14,76.32 43.14,78.18 C43.14,79 42.3,79.44 41.46,79.44 C39.7,79.44 38.56,78.26 38.56,78.26 L37.62,79.64 C37.62,79.64 38.98,81.12 41.46,81.12 Z M49.34,68.74 L49.34,66.76 L47.38,66.76 L47.38,68.74 L49.34,68.74 Z M49.34,80.88 L49.34,70.76 L47.4,70.76 L47.4,80.88 L49.34,80.88 Z M57.04,81.12 C59.46,81.12 60.96,79.68 60.96,79.68 L60.16,78.26 C60.16,78.26 58.9,79.44 57.16,79.44 C55.36,79.44 53.78,78.32 53.68,76.1 L61.06,76.1 C61.06,76.1 61.12,75.52 61.12,75.26 C61.12,72.64 59.6,70.52 56.74,70.52 C53.86,70.52 51.68,72.6 51.68,75.82 C51.68,78.82 53.86,81.12 57.04,81.12 Z M59.14,74.64 L53.74,74.64 C54.02,72.98 55.22,72.06 56.7,72.06 C58,72.06 59.08,72.9 59.14,74.64 Z" id="Werkversie" fill="#FFFFFF" fill-rule="nonzero" transform="translate(11.180000, 73.940000) rotate(-90.000000) translate(-11.180000, -73.940000) "></path>
    </g>
</svg>