<?xml version="1.0" encoding="UTF-8"?>
<svg width="24px" height="380px" viewBox="0 0 24 380" version="1.1" xmlns="http://www.w3.org/2000/svg" xmlns:xlink="http://www.w3.org/1999/xlink">
    <title>crow-specStatusHist-depr</title>
    <g id="crow-specStatusHist-depr" stroke="none" stroke-width="1" fill="none" fill-rule="evenodd">
        <rect id="Rectangle-Copy" fill="#FF5500" transform="translate(12.000000, 190.000000) rotate(-90.000000) translate(-12.000000, -190.000000) " x="-178" y="178" width="380" height="24"></rect>
        <path d="M-23.8,72.69 L-18.6,58.57 L-20.7,58.57 L-24.24,68.55 C-24.5,69.31 -24.78,70.49 -24.78,70.49 L-24.82,70.49 C-24.82,70.49 -25.1,69.31 -25.36,68.55 L-28.86,58.57 L-31,58.57 L-25.78,72.69 L-23.8,72.69 Z M-12.9,72.93 C-10.48,72.93 -8.98,71.49 -8.98,71.49 L-9.78,70.07 C-9.78,70.07 -11.04,71.25 -12.78,71.25 C-14.58,71.25 -16.16,70.13 -16.26,67.91 L-8.88,67.91 C-8.88,67.91 -8.82,67.33 -8.82,67.07 C-8.82,64.45 -10.34,62.33 -13.2,62.33 C-16.08,62.33 -18.26,64.41 -18.26,67.63 C-18.26,70.63 -16.08,72.93 -12.9,72.93 Z M-10.8,66.45 L-16.2,66.45 C-15.92,64.79 -14.72,63.87 -13.24,63.87 C-11.94,63.87 -10.86,64.71 -10.8,66.45 Z M-4.52,72.69 L-4.52,68.55 C-4.52,67.93 -4.46,67.31 -4.28,66.73 C-3.82,65.23 -2.68,64.35 -1.44,64.35 C-1.14,64.35 -0.88,64.41 -0.88,64.41 L-0.88,62.49 C-0.88,62.49 -1.12,62.45 -1.38,62.45 C-2.94,62.45 -4.12,63.61 -4.58,65.09 L-4.62,65.09 C-4.62,65.09 -4.58,64.75 -4.58,64.33 L-4.58,62.57 L-6.46,62.57 L-6.46,72.69 L-4.52,72.69 Z M5.68,72.69 L9.42,62.57 L7.38,62.57 L4.92,69.41 C4.72,69.97 4.58,70.79 4.56,70.79 L4.52,70.79 C4.5,70.79 4.38,69.97 4.18,69.41 L1.72,62.57 L-0.34,62.57 L3.44,72.69 L5.68,72.69 Z M13.7,72.93 C15.9531034,72.93 16.8192866,71.1963496 16.9280438,70.9572254 L16.94,70.93 L16.94,70.93 L16.98,70.93 C16.98,70.93 16.94,71.27 16.94,71.73 L16.94,72.69 L18.74,72.69 L18.74,66.29 C18.74,63.73 17.3,62.33 14.74,62.33 C12.42,62.33 10.96,63.53 10.96,63.53 L11.76,64.95 C11.76,64.95 13.02,63.97 14.58,63.97 C15.86,63.97 16.8,64.53 16.8,66.19 L16.8,66.37 L16.36,66.37 C14.66,66.37 10.26,66.51 10.26,69.85 C10.26,71.87 11.96,72.93 13.7,72.93 Z M14.12,71.37 C12.86,71.37 12.22,70.57 12.22,69.75 C12.22,67.93 14.86,67.83 16.32,67.83 L16.82,67.83 L16.82,68.15 C16.82,69.65 15.76,71.37 14.12,71.37 Z M24.24,72.77 C24.58,72.77 24.88,72.73 24.88,72.73 L24.88,71.01 C24.88,71.01 24.72,71.03 24.54,71.03 C23.94,71.03 23.46,70.81 23.46,69.59 L23.46,58.57 L21.52,58.57 L21.52,69.93 C21.52,72.47 23.14,72.77 24.24,72.77 Z M29.54,72.77 C29.88,72.77 30.18,72.73 30.18,72.73 L30.18,71.01 C30.18,71.01 30.02,71.03 29.84,71.03 C29.24,71.03 28.76,70.81 28.76,69.59 L28.76,58.57 L26.82,58.57 L26.82,69.93 C26.82,72.47 28.44,72.77 29.54,72.77 Z M36.9,72.93 C39.32,72.93 40.82,71.49 40.82,71.49 L40.02,70.07 C40.02,70.07 38.76,71.25 37.02,71.25 C35.22,71.25 33.64,70.13 33.54,67.91 L40.92,67.91 C40.92,67.91 40.98,67.33 40.98,67.07 C40.98,64.45 39.46,62.33 36.6,62.33 C33.72,62.33 31.54,64.41 31.54,67.63 C31.54,70.63 33.72,72.93 36.9,72.93 Z M39,66.45 L33.6,66.45 C33.88,64.79 35.08,63.87 36.56,63.87 C37.86,63.87 38.94,64.71 39,66.45 Z M45.28,72.69 L45.28,67.95 C45.28,67.45 45.32,66.99 45.44,66.59 C45.86,65.13 47.1,64.11 48.64,64.11 C50.26,64.11 50.56,65.23 50.56,66.65 L50.56,72.69 L52.5,72.69 L52.5,66.21 C52.5,63.63 51.4,62.33 49.02,62.33 C46.82,62.33 45.62,63.77 45.22,64.65 L45.18,64.65 C45.18,64.65 45.22,64.31 45.22,63.91 L45.22,62.57 L43.34,62.57 L43.34,72.69 L45.28,72.69 Z" id="Vervallen" fill="#FFFFFF" fill-rule="nonzero" transform="translate(10.750000, 65.750000) rotate(-90.000000) translate(-10.750000, -65.750000) "></path>
    </g>
</svg>